<svg width="28" height="27" viewBox="0 0 28 27" fill="none" xmlns="http://www.w3.org/2000/svg">
<path d="M12.2289 1.77499C12.8507 0.741682 14.3488 0.741682 14.9707 1.77499L18.0779 6.9382C18.3013 7.30942 18.6657 7.57417 19.0878 7.67192L24.9585 9.03159C26.1334 9.3037 26.5963 10.7284 25.8058 11.6392L21.8555 16.1899C21.5715 16.5171 21.4323 16.9454 21.4697 17.3771L21.9907 23.3806C22.095 24.5821 20.8831 25.4626 19.7726 24.9922L14.2239 22.6415C13.825 22.4725 13.3746 22.4725 12.9756 22.6415L7.42695 24.9922C6.31649 25.4626 5.10452 24.5821 5.20879 23.3806L5.72982 17.3771C5.76728 16.9454 5.62809 16.5171 5.34408 16.1899L1.39378 11.6392C0.603204 10.7284 1.06613 9.3037 2.24104 9.03159L8.11173 7.67192C8.53382 7.57417 8.89821 7.30942 9.12162 6.9382L12.2289 1.77499Z" fill="#E4A802" stroke="#E4A802" stroke-width="2"/>
</svg>
